PathFileType	4	(X/Y/Z)	D:\TRACE\v60_Jaco2_6-2-23\JustArmDRS_Motion2_3-v60.trc
DataRate	CameraRate	NumFrames	NumMarkers	Units	OrigDataRate	OrigDataStartFrame	OrigNumFrames
100.00	100.00	      14	9	mm	100.00	1743	      6969
Frame#	Time	front left toe			Front right toe			aft left toe			aft right toe			Arm			FL body			FR body			AL Body			AR Body			
		X1	Y1	Z1	X2	Y2	Z2	X3	Y3	Z3	X4	Y4	Z4	X5	Y5	Z5	X6	Y6	Z6	X7	Y7	Z7	X8	Y8	Z8	X9	Y9	Z9	

1743	17.420	-214.86397	26.74222	-161.36610	192.01584	22.77288	-206.96635	-149.62189	8.33943	443.52661	254.85693	6.61544	431.04056	10.02846	1216.71765	-512.23279	-88.98325	598.69727	-295.20505	70.32364	595.29547	-315.43561	25.72531	561.30878	642.08093	181.79230	552.34332	624.57416	
1744	17.430	-215.98230	26.17989	-161.69183	191.19283	22.31620	-207.14592	-150.68187	9.03138	443.25369	254.11967	7.61519	430.97043	7.59415	1216.07764	-513.53021	-90.82942	598.19604	-295.87183	68.67429	594.88214	-315.99103	23.85380	562.04651	641.56964	181.32283	553.35492	624.17133	
1745	17.440	-217.10823	25.71659	-162.01643	189.68510	21.72679	-207.53415	-152.07753	10.04147	442.88257	252.55666	8.36104	430.70303	5.48366	1215.70630	-514.57727	-92.13763	597.80408	-296.44604	66.64443	594.50354	-316.17026	22.56835	562.96558	641.49005	178.90137	554.57428	624.06549	
1746	17.450	-218.36162	25.30519	-162.22275	188.74181	21.42628	-207.82396	-153.00159	10.70930	442.89044	251.54813	9.29416	430.51379	2.74860	1215.24731	-515.65857	-93.56420	597.16064	-296.76703	65.71454	594.33960	-316.95010	20.73819	563.75372	640.89612	177.41928	556.10010	624.52283	
1747	17.460	-219.30453	24.87524	-162.67415	187.63028	21.02483	-208.12123	-154.22496	11.68369	442.51837	250.45683	10.22756	430.21622	0.58136	1214.42957	-516.98871	-95.22627	596.86877	-297.40378	64.30438	594.02911	-317.46686	18.89365	564.76038	640.10303	175.65286	556.64929	623.30554	
1748	17.470	-220.53288	24.40093	-162.93599	186.30518	20.58782	-208.48813	-155.44055	12.60923	442.30286	249.33217	11.07798	429.94049	-2.04448	1214.26416	-518.26062	-96.62006	596.48022	-297.91641	62.63600	593.93317	-318.09076	17.82946	565.40601	640.00122	174.06705	557.54718	622.86761	
1749	17.480	-221.85747	24.18088	-163.06390	185.28601	20.25480	-208.82239	-156.55728	13.19302	442.05368	248.30914	11.83585	429.57953	-4.56661	1213.24768	-519.66455	-98.16214	596.02100	-298.76434	60.67591	593.55249	-318.20819	16.14944	566.30695	639.47534	172.61272	558.98285	623.09033	
1750	17.490	-222.76648	23.84557	-163.59988	184.56709	19.93192	-209.18359	-157.80969	14.07324	441.66046	246.90425	12.71581	429.09131	-7.12537	1212.73877	-520.70709	-99.51772	595.53644	-299.20840	59.35232	592.92908	-318.30600	14.36046	567.00916	638.96106	170.70285	559.66046	621.64130	
1751	17.500	-223.78119	23.25939	-163.95146	183.12329	19.30360	-209.56111	-158.76294	14.84863	441.50519	246.17592	13.67387	428.90121	-9.40929	1212.13525	-522.18878	-100.78008	594.79834	-299.69797	58.44736	593.18060	-319.78314	12.80877	567.86072	638.40210	169.10434	560.62836	621.13660	
1752	17.510	-225.02863	22.87316	-164.06964	182.21031	18.99987	-209.77138	-159.87923	15.88547	441.18967	244.53587	14.24655	428.48550	-11.55139	1211.33655	-523.65320	-102.27175	594.41382	-300.39932	56.65856	592.86536	-320.19138	11.06069	568.61157	637.89935	167.58028	561.69727	621.04889	
1753	17.520	-226.07738	22.39550	-164.52248	180.83588	18.46626	-210.13289	-159.43166	15.89879	441.00098	243.68672	15.32421	428.46167	-13.71469	1210.61926	-525.05554	-103.78704	593.82080	-300.80060	55.37934	592.55481	-320.53339	9.42902	569.41010	637.18494	165.56784	562.14526	619.46381	
1754	17.530	-226.88263	21.77059	-164.71729	179.87596	18.12029	-210.32921	-160.65872	16.73490	440.58383	242.59306	16.26823	428.20334	-16.25120	1210.16138	-526.23590	-105.33874	593.62335	-301.53793	53.28474	592.04132	-320.92752	8.04944	570.34125	636.63208	164.07115	563.35388	619.02551	
1755	17.540	-228.17323	21.31318	-165.14798	178.92766	17.54061	-210.77296	-161.28145	17.29832	440.48462	241.53114	17.10857	428.00143	-18.97132	1209.58289	-527.68298	-106.94971	592.92914	-302.28833	51.78473	591.64844	-321.63815	6.09171	571.10773	636.03223	162.51247	564.96857	619.23981	
1756	17.550	-229.05109	20.80707	-165.45023	178.02185	16.97407	-211.04417	-162.69173	18.50398	440.11591	240.73097	18.08033	427.61469	-21.36696	1208.80151	-529.11407	-108.51843	592.46777	-302.86664	50.96836	591.41052	-322.55905	4.39823	572.28912	635.49390	160.80009	565.76361	618.15753	
